<?xml version="1.0" encoding="iso-8859-1"?>
<!-- Generator: Adobe Illustrator 18.0.0, SVG Export Plug-In . SVG Version: 6.00 Build 0)  -->
<!DOCTYPE svg PUBLIC "-//W3C//DTD SVG 1.1//EN" "http://www.w3.org/Graphics/SVG/1.1/DTD/svg11.dtd">
<svg version="1.1" id="Capa_1" xmlns="http://www.w3.org/2000/svg" xmlns:xlink="http://www.w3.org/1999/xlink" x="0px" y="0px"
	 viewBox="0 0 220 220" style="enable-background:new 0 0 220 220;" xml:space="preserve">
<g>
	<path d="M110,0C49.346,0,0,49.346,0,110s49.346,110,110,110s110-49.346,110-110S170.654,0,110,0z M110,210
		c-55.14,0-100-44.86-100-100S54.86,10,110,10s100,44.86,100,100S165.14,210,110,210z"/>
	<path d="M110,19.5c-49.902,0-90.5,40.598-90.5,90.5s40.598,90.5,90.5,90.5s90.5-40.598,90.5-90.5S159.902,19.5,110,19.5z
		 M110,197.5c-48.248,0-87.5-39.252-87.5-87.5S61.752,22.5,110,22.5s87.5,39.252,87.5,87.5S158.248,197.5,110,197.5z"/>
	<polygon points="78.038,122.5 78.038,145.148 70.288,145.148 70.288,154.25 97.788,154.25 97.788,145.148 90.038,145.148 
		90.038,122.5 	"/>
	<polygon points="141.962,95.5 141.962,72.852 149.712,72.852 149.712,63.75 122.212,63.75 122.212,72.852 129.962,72.852 
		129.962,95.5 	"/>
	<polygon points="129.962,122.5 129.962,132.246 124.479,122.5 110.71,122.5 128.572,154.25 141.962,154.25 141.962,122.5 	"/>
	<polygon points="90.038,95.5 90.038,85.754 95.521,95.5 109.29,95.5 91.428,63.75 78.038,63.75 78.038,95.5 	"/>
	<rect x="66.5" y="97.5" width="89" height="10"/>
	<rect x="66.5" y="110.5" width="89" height="10"/>
</g>
<g>
</g>
<g>
</g>
<g>
</g>
<g>
</g>
<g>
</g>
<g>
</g>
<g>
</g>
<g>
</g>
<g>
</g>
<g>
</g>
<g>
</g>
<g>
</g>
<g>
</g>
<g>
</g>
<g>
</g>
</svg>
